<svg xmlns="http://www.w3.org/2000/svg" height="40px" viewBox="0 -960 960 960" width="40px" fill="#FFFFFF"><path d="M186.67-633.33h586.66v-113.34H186.67v113.34Zm0 0v-113.34 113.34Zm0 553.33q-27 0-46.84-19.83Q120-119.67 120-146.67v-600q0-27 19.83-46.83 19.84-19.83 46.84-19.83h56.66V-880h70v66.67h333.34V-880h70v66.67h56.66q27 0 46.84 19.83Q840-773.67 840-746.67v280.34q-15.78-7.86-32.39-13.1-16.61-5.24-34.28-8.24v-79H186.67v420h296.66q6.34 18.67 14.84 35 8.5 16.34 20.16 31.67H186.67Zm404.5-16.5q-56.5-56.5-56.5-136.17 0-79.66 56.5-136.16t136.16-56.5q79.67 0 136.17 56.5 56.5 56.5 56.5 136.16Q920-153 863.5-96.5 807-40 727.33-40q-79.66 0-136.16-56.5Zm197.33-37.17 27.83-28-75-75v-112H702V-222l86.5 88.33Z"/></svg>